<?xml version="1.0" encoding="UTF-8"?>
<!-- Generated by Pixelmator Pro 3.7 -->
<svg width="4658" height="2714" viewBox="0 0 4658 2714" xmlns="http://www.w3.org/2000/svg">
    <path id="Shape" fill="#ffffff" fill-rule="evenodd" stroke="none" d="M 2466 2101 C 2320.783203 2101 2320.783203 2101 2321.356934 2103.25 C 2321.672363 2104.487549 2337.2229 2165.243408 2355.913818 2238.263184 C 2374.604492 2311.282959 2393.300781 2384.391113 2397.461182 2400.726074 C 2401.621582 2417.060791 2405.411865 2430.812012 2405.884033 2431.28418 C 2406.361816 2431.761963 2407.665039 2428.675293 2408.82373 2424.321289 C 2409.968506 2420.019531 2421.741699 2373.641357 2434.986572 2321.258545 C 2448.231445 2268.875977 2470.475098 2180.900879 2484.416748 2125.758789 C 2498.358398 2070.616455 2510.2854 2023.587524 2510.921143 2021.25 C 2512.077148 2017 2512.077148 2017 2551.036621 2017 L 2589.996094 2017 L 2590.248047 1762.79248 L 2590.5 1508.584839 L 2601 1504.265015 C 2606.774902 1501.88916 2616.146729 1497.370117 2621.825928 1494.222656 C 2627.505371 1491.075195 2636.730225 1485.049072 2642.325928 1480.831299 C 2647.921631 1476.613525 2657.217041 1468.401001 2662.982178 1462.581299 L 2673.464355 1452 L 2713.732178 1452 L 2754 1452 L 2754.044434 1493.25 C 2754.084473 1530.305298 2754.24292 1534.296631 2755.603027 1532.5 C 2756.435547 1531.400024 2760.294434 1525.550049 2764.177979 1519.5 C 2768.061523 1513.449951 2774.049316 1504.900024 2777.484375 1500.5 C 2780.919189 1496.099976 2788.438232 1487.967773 2794.193604 1482.428345 C 2799.94873 1476.888916 2808.897217 1469.506592 2814.078857 1466.023193 C 2819.260498 1462.539673 2827.15332 1457.965454 2831.618652 1455.858276 C 2836.08374 1453.750977 2843.95874 1450.645264 2849.118652 1448.956543 C 2854.27832 1447.2677 2862.969482 1445.124146 2868.431885 1444.192993 C 2875.553223 1442.979126 2884.18457 1442.5 2898.931885 1442.5 C 2914.116211 1442.5 2922.330811 1442.973145 2930.314453 1444.307739 C 2936.262451 1445.302002 2945.712402 1447.468506 2951.314453 1449.12207 C 2956.916504 1450.775513 2966.186279 1454.357178 2971.914063 1457.081299 C 2977.641846 1459.805298 2986.121826 1464.558105 2990.758057 1467.643066 C 2995.394531 1470.728027 3003.483398 1477.357788 3008.733643 1482.375977 C 3013.983643 1487.394165 3021.086426 1495.099976 3024.517578 1499.5 C 3027.94873 1503.900024 3032.841064 1510.940552 3035.389648 1515.145752 C 3037.937988 1519.35083 3042.231445 1527.450806 3044.930664 1533.145752 C 3047.629639 1538.840576 3051.251953 1547.550049 3052.97998 1552.5 C 3054.708008 1557.449951 3057.431396 1566.675049 3059.031494 1573 C 3060.631836 1579.324951 3062.834961 1590.125 3063.927246 1597 C 3065.019531 1603.875 3066.381348 1614.675049 3066.953125 1621 C 3067.629395 1628.478394 3067.994385 1699.730469 3067.996582 1824.75 L 3068 2017 L 3047.5 2017 L 3027 2017 L 3027 2059 L 3027 2101 L 2966.616699 2101 C 2906.233154 2101 2906.233154 2101 2905.630371 2098.75 C 2905.298584 2097.512451 2905.02124 1998.796387 2905.013672 1879.380981 C 2905.001709 1689.672363 2904.808105 1661.161865 2903.480469 1653.547852 C 2902.644531 1648.755127 2900.607422 1641.324341 2898.953369 1637.035156 C 2897.299316 1632.745972 2893.721191 1626.068848 2891.002197 1622.197144 C 2888.283203 1618.325439 2883.458008 1613.029053 2880.279297 1610.427368 C 2877.100586 1607.825684 2871.330078 1604.184204 2867.455566 1602.335083 C 2863.581055 1600.486084 2856.381104 1597.966675 2851.455566 1596.736572 C 2844.244629 1594.935669 2839.675293 1594.5 2828 1594.5 C 2817.297607 1594.5 2811.535645 1594.9823 2806 1596.341553 C 2801.875 1597.35437 2795.218018 1599.743164 2791.207031 1601.649902 C 2786.453369 1603.909424 2781.490479 1607.40271 2776.954102 1611.682007 C 2773.126465 1615.292969 2768.420898 1620.838013 2766.497314 1624.004272 C 2764.573975 1627.170654 2761.854736 1632.804565 2760.45459 1636.524292 C 2759.054443 1640.244019 2757.191162 1646.260254 2756.313721 1649.893677 C 2754.996826 1655.34729 2754.643066 1665.268433 2754.285889 1706.75 L 2753.853271 1757 L 2746.926758 1757 L 2740 1757 L 2740 1838.5 L 2740 1920 L 2747 1920 L 2754 1920 L 2754 1968.5 L 2754 2017 L 2747 2017 L 2740 2017 L 2740 2059 L 2740 2101 L 2693.172119 2101 L 2646.344238 2101 L 2556.345215 2383.25 L 2466.346191 2665.5 L 2406.151367 2665.757813 C 2345.956543 2666.015625 2345.956543 2666.015625 2344.966553 2663.412109 C 2344.422119 2661.980225 2324.402588 2599.428223 2300.478271 2524.407715 C 2276.554199 2449.386963 2233.5896 2314.65332 2205.001953 2224.999512 C 2176.414063 2135.345459 2149.916992 2052.206543 2146.119629 2040.246094 C 2142.322266 2028.285767 2139.418457 2018.162476 2139.666748 2017.75 C 2139.915039 2017.337524 2175.850586 2017 2219.523926 2017 C 2297.90625 2017 2298.943359 2017.025757 2300 2019 C 2300.588623 2020.099976 2301.504639 2021 2302.035156 2021 C 2302.652588 2021 2303 1919.537109 2303 1739.166748 C 2303 1584.158325 2303.286377 1457.046875 2303.636719 1456.696655 C 2303.986816 1456.346558 2307.924316 1459.336914 2312.386719 1463.341797 C 2316.848877 1467.346802 2323.199951 1472.688843 2326.5 1475.212891 C 2329.800049 1477.737061 2335.929688 1482.021362 2340.121826 1484.733643 C 2344.313721 1487.445923 2351.821777 1491.771362 2356.806396 1494.345825 C 2361.791016 1496.920288 2370.804199 1501.01001 2376.836182 1503.434082 C 2382.86792 1505.858276 2392.684814 1509.246338 2398.651367 1510.963135 C 2404.618164 1512.680054 2416.024902 1515.385254 2424 1516.974854 C 2431.975098 1518.564331 2443.675049 1520.37146 2450 1520.990723 C 2456.324951 1521.609863 2462.512451 1522.323853 2463.75 1522.577271 C 2466 1523.038086 2466 1523.038086 2466 1812.019043 L 2466 2101 Z M 3341.5 2357.797363 C 3327.550049 2354.26416 3319.899902 2351.99707 3315.5 2350.47998 C 3311.100098 2348.962891 3304.125 2346.239258 3300 2344.427246 C 3295.875 2342.615479 3289.350098 2339.394287 3285.5 2337.269043 C 3281.649902 2335.143799 3276.024902 2331.811035 3273 2329.863037 C 3269.975098 2327.914795 3264.125 2323.600098 3260 2320.274902 C 3255.875 2316.949463 3249.295166 2310.914795 3245.378174 2306.864258 C 3241.460938 2302.813965 3236.012207 2296.574951 3233.269775 2293 C 3230.527344 2289.425049 3226.466309 2283.574951 3224.245605 2280 C 3222.024658 2276.425049 3218.192627 2269.449951 3215.729736 2264.5 C 3213.266846 2259.550049 3209.611328 2251.108398 3207.606201 2245.740723 C 3205.601074 2240.373291 3202.594971 2230.698242 3200.926025 2224.240723 C 3199.25708 2217.783447 3197.637939 2209.800049 3197.327881 2206.5 C 3196.862305 2201.546387 3197.089844 2200.123535 3198.63208 2198.340576 C 3200.016113 2196.740479 3213.320068 2192.145996 3250 2180.599854 C 3299.5 2165.018555 3299.5 2165.018555 3306 2168.17041 C 3310.531006 2170.367432 3314.951904 2173.772461 3320.593506 2179.411133 C 3326.666504 2185.480469 3329.62793 2189.414307 3332.455078 2195.167969 C 3334.527588 2199.385254 3337.080566 2205.9104 3338.128418 2209.667969 C 3339.17627 2213.425537 3340.517334 2221.675049 3341.108887 2228 C 3341.784668 2235.229004 3342.056885 2261.467285 3341.842041 2298.648682 L 3341.5 2357.797363 Z M 3494.803467 2022.722412 C 3486.818359 2036.898193 3481.676514 2044.948242 3478.22583 2049.756836 C 3474.774902 2054.565674 3470.151855 2060.524902 3467.952637 2063 L 3463.953857 2067.5 L 3460.320313 2063 C 3458.321777 2060.524902 3452.369629 2054.212402 3447.093262 2048.972168 C 3441.816895 2043.731934 3433.225098 2036.574707 3428 2033.067139 C 3422.774902 2029.559692 3414.442139 2024.755615 3409.482422 2022.391357 C 3404.522705 2020.027344 3396.228027 2016.708374 3391.049316 2015.016113 C 3385.87085 2013.323975 3376.212646 2010.94043 3369.58667 2009.719727 C 3359.434326 2007.849121 3353.99707 2007.5 3335.019531 2007.5 C 3317.314453 2007.5 3310.575928 2007.885498 3303.5 2009.302979 C 3298.550049 2010.294678 3289.796875 2012.675049 3284.048828 2014.592529 C 3278.300781 2016.510132 3269.300781 2020.328369 3264.048828 2023.077393 C 3258.796875 2025.826416 3251.047363 2030.646118 3246.827637 2033.787842 C 3242.60791 2036.929443 3236.881592 2041.445068 3234.102295 2043.822388 C 3229.049561 2048.144775 3229.049561 2048.144775 3223.643799 2039.822388 C 3220.67041 2035.245117 3216.224854 2027.449951 3213.764648 2022.5 C 3211.304443 2017.550049 3207.451416 2008.761475 3205.202393 2002.970093 C 3202.953369 1997.178589 3199.517578 1986.374878 3197.567383 1978.961914 C 3195.617188 1971.548828 3192.916748 1958.96167 3191.566406 1950.990356 C 3190.216064 1943.019165 3188.523682 1929.522827 3187.805664 1920.998535 C 3186.818359 1909.278809 3186.5 1874.048096 3186.5 1776.5 C 3186.5 1678.951904 3186.818359 1643.721191 3187.805664 1632.001343 C 3188.523682 1623.477173 3190.206055 1610.040161 3191.543945 1602.141235 C 3192.88208 1594.242432 3195.389648 1582.316772 3197.116211 1575.639893 C 3198.842773 1568.962891 3201.787842 1559.242432 3203.660889 1554.038696 C 3205.53418 1548.835083 3209.320313 1539.835083 3212.074707 1534.038696 C 3214.829102 1528.242432 3218.414795 1521.362549 3220.043213 1518.75 C 3223.003662 1514 3223.003662 1514 3353.266846 1514 L 3483.530029 1514 L 3489.015137 1522.712158 C 3494.5 1531.424438 3494.5 1531.424438 3495.175781 1526.962158 C 3495.547607 1524.507935 3495.88501 1520.587524 3495.925781 1518.25 C 3496 1514 3496 1514 3564.5 1514 L 3633 1514 L 3633 1483 L 3633 1452 L 3645.438721 1452 C 3657.877441 1452 3657.877441 1452 3658.480225 1456.25 C 3658.812012 1458.587524 3658.951904 1600 3658.791504 1770.5 L 3658.5 2080.5 L 3651.435303 2094 C 3647.549561 2101.425049 3642.530762 2112.693359 3640.282471 2119.040527 C 3638.03418 2125.387939 3634.802002 2136.187988 3633.099854 2143.040527 C 3631.397705 2149.893311 3629.094482 2160.888428 3627.981201 2167.474121 C 3626.868164 2174.060059 3625.293701 2186.659912 3624.482666 2195.474121 C 3623.599121 2205.076416 3623.006592 2222.791992 3623.00415 2239.671875 C 3623 2267.843506 3623 2267.843506 3618.577148 2274.439209 C 3616.144531 2278.066895 3610.446777 2285.311035 3605.915527 2290.537598 C 3601.384277 2295.763916 3593.137695 2303.939697 3587.5896 2308.705811 C 3582.041504 2313.471924 3572.51001 2320.654053 3566.408691 2324.66626 C 3560.307129 2328.678467 3549.731689 2334.654297 3542.907471 2337.945801 C 3536.083496 2341.237061 3526.225098 2345.46582 3521 2347.343262 C 3515.774902 2349.220215 3510.071533 2351.064453 3508.325439 2351.440918 C 3505.151123 2352.125732 3505.151123 2352.125732 3504.677002 2268.812988 C 3504.28418 2199.806641 3503.927979 2183.525146 3502.602295 2174 C 3501.722168 2167.675049 3499.84668 2156.912354 3498.435059 2150.083008 C 3495.868164 2137.665771 3495.868164 2137.665771 3495.995605 2087.583008 C 3496.065918 2060.037354 3495.826172 2034.175049 3495.463379 2030.111206 L 3494.803467 2022.722412 Z M 595.284912 1492 C 428.090637 1492 428.090637 1492 427.562439 1488.75 C 427.271942 1486.962524 426.537476 1481 425.930298 1475.5 C 425.32309 1470 423.947571 1460.550049 422.873505 1454.5 C 421.799469 1448.449951 419.748688 1439 418.316223 1433.5 C 416.883759 1428 414.24472 1419.636841 412.451691 1414.915283 C 410.658661 1410.193726 407.613556 1403.21875 405.684753 1399.415283 C 403.755981 1395.611938 400.414795 1389.800049 398.259888 1386.5 C 396.10498 1383.199951 391.902466 1377.832886 388.920959 1374.57312 C 385.939423 1371.313354 380.799988 1366.651855 377.5 1364.214355 C 374.200012 1361.776855 368.575012 1358.308472 365 1356.506836 C 361.424988 1354.705078 355.544678 1352.319092 351.932648 1351.204468 C 348.320587 1350.089844 340.895599 1348.639038 335.432648 1347.980591 C 329.443726 1347.258545 321.462402 1347.049194 315.330963 1347.453003 C 309.737976 1347.821533 301.182129 1348.938232 296.317963 1349.934814 C 291.453796 1350.931396 284.329895 1352.990723 280.48703 1354.511108 C 276.644165 1356.031494 270.575012 1358.977539 267 1361.057983 C 263.424988 1363.138428 258.024994 1366.958374 255 1369.546753 C 251.975006 1372.13501 247.519867 1376.558472 245.099716 1379.376343 C 242.679565 1382.194336 239.209839 1386.75 237.389221 1389.5 C 235.568604 1392.25 232.298889 1398.324951 230.123169 1403 C 227.947464 1407.675049 225.040405 1415.407349 223.663055 1420.182983 C 222.28569 1424.958618 220.413925 1434.408569 219.503571 1441.182983 C 217.999527 1452.375244 217.880768 1471.717407 218.203003 1653 C 218.557617 1852.5 218.557617 1852.5 220.807297 1862.28894 C 222.044632 1867.672852 224.595779 1876.383301 226.476517 1881.645264 C 228.357269 1886.907471 231.761368 1894.4729 234.041199 1898.45752 C 236.32103 1902.442139 240.956924 1909.000244 244.34317 1913.03125 C 247.729431 1917.062256 253.649994 1922.78064 257.5 1925.738892 C 261.350006 1928.697266 268.549988 1933.092285 273.5 1935.505859 C 278.450012 1937.919434 286.100006 1940.826172 290.5 1941.965332 C 294.899994 1943.10437 302.773926 1944.54126 307.99762 1945.158447 C 313.324921 1945.787842 322.545776 1946.018311 328.99762 1945.68335 C 335.337616 1945.354126 344.090485 1944.162842 348.5 1943.028809 C 352.899994 1941.897461 360.549988 1938.952881 365.5 1936.485596 C 370.450012 1934.018188 377.704498 1929.336914 381.621124 1926.08252 C 385.53772 1922.828247 391.681183 1916.249756 395.273285 1911.463501 C 398.865356 1906.677368 403.915497 1898.480103 406.495819 1893.247437 C 409.076141 1888.014771 412.945374 1878.379639 415.094086 1871.83606 C 417.242798 1865.29248 420.110565 1854.439941 421.466858 1847.719238 C 422.823151 1840.998657 424.619659 1829.650024 425.459076 1822.5 C 426.298523 1815.349976 427.241211 1807.587524 427.553925 1805.25 C 428.122559 1801 428.122559 1801 503.561279 1801 C 545.052551 1801 579 1801.374023 579 1801.831299 C 579 1802.288452 574.051636 1807.272461 568.003662 1812.906738 C 561.955688 1818.541016 553.362732 1827.504517 548.908264 1832.825439 C 544.453796 1838.146484 537.200623 1847.884766 532.7901 1854.466309 C 528.379578 1861.047729 521.246277 1873.647705 516.938354 1882.466309 C 512.630432 1891.284912 507.259155 1903.900024 505.002228 1910.5 C 502.74527 1917.099976 499.584747 1927.449951 497.978821 1933.5 C 496.372894 1939.550049 493.918365 1950.800049 492.524323 1958.5 C 491.130249 1966.199951 489.302368 1978.349976 488.462372 1985.5 C 487.583771 1992.978271 486.675659 2012.431641 486.324402 2031.299438 L 485.713745 2064.098877 L 476.606873 2070.134766 C 471.598083 2073.454346 460.75 2079.493652 452.5 2083.555664 C 444.25 2087.617432 431.424988 2092.939453 424 2095.38208 C 416.575012 2097.824707 405.325012 2100.974609 399 2102.381836 C 392.674988 2103.789063 382.774994 2105.625 377 2106.461426 C 371.225006 2107.29834 361.549988 2108.436279 355.5 2108.990723 C 349.450012 2109.544922 333.924988 2109.9375 321 2109.862793 C 308.075012 2109.78833 293.674988 2109.373291 289 2108.94043 C 284.325012 2108.507568 276.450012 2107.627441 271.5 2106.984863 C 266.549988 2106.342041 257.170776 2104.746582 250.657257 2103.439697 C 244.143738 2102.132568 233.793747 2099.644287 227.657257 2097.910156 C 221.520767 2096.175781 211.44429 2092.806641 205.265091 2090.422607 C 199.085876 2088.038574 188.285889 2083.159912 181.265091 2079.581299 C 174.244293 2076.002686 164.675003 2070.526123 160 2067.411377 C 155.324997 2064.296631 147.675003 2058.776611 143 2055.144531 C 138.324997 2051.512695 129.550003 2043.548584 123.5 2037.446533 C 117.449997 2031.344482 108.522881 2020.972046 103.661964 2014.396606 C 98.801041 2007.821289 92.088066 1997.729492 88.744232 1991.970703 C 85.400406 1986.211792 80.288284 1976.286865 77.383972 1969.915283 C 74.47966 1963.543701 70.066605 1952.384277 67.577179 1945.116455 C 65.087753 1937.848633 61.683453 1926.343262 60.012058 1919.549072 C 58.34066 1912.754761 55.877548 1900.198364 54.538475 1891.645874 C 53.199398 1883.093506 51.573719 1868.761963 50.925858 1859.797974 C 50.08152 1848.115723 49.747246 1787.991943 49.745529 1647.5 C 49.743881 1512.906372 50.095112 1446.330566 50.866604 1435 C 51.484512 1425.925049 52.857178 1412.635864 53.916965 1405.468506 C 54.976757 1398.301147 57.048962 1387.051147 58.521866 1380.468506 C 59.994774 1373.885864 62.745277 1363.391846 64.634102 1357.14856 C 66.522919 1350.905273 69.809685 1341.404053 71.938026 1336.034912 C 74.06636 1330.665649 78.35405 1321.190674 81.466225 1314.979248 C 84.578392 1308.767944 89.74588 1299.515503 92.949532 1294.418335 C 96.153183 1289.321167 101.412621 1281.630249 104.637177 1277.327515 C 107.861732 1273.02478 115.675003 1264.1604 122 1257.628906 C 128.324997 1251.097412 137.100006 1242.849243 141.5 1239.299561 C 145.899994 1235.75 153.826675 1229.974487 159.114822 1226.46521 C 164.402985 1222.955811 173.402985 1217.619873 179.114822 1214.607544 C 184.826675 1211.595093 194.449997 1207.11145 200.5 1204.643677 C 206.550003 1202.176025 216.692566 1198.583374 223.039032 1196.660034 C 229.385483 1194.736694 240.117981 1191.993408 246.888992 1190.563843 C 253.660019 1189.134155 266.242462 1187.051025 274.849976 1185.93457 C 283.457489 1184.818115 300.020905 1183.63208 311.657562 1183.298828 C 324.504059 1182.930908 339.234741 1183.158203 349.157562 1183.877319 C 358.145905 1184.528687 370.225006 1185.746582 376 1186.58374 C 381.774994 1187.420898 391.674988 1189.238159 398 1190.621948 C 404.325012 1192.005859 416.25 1195.371948 424.5 1198.102417 C 432.75 1200.832764 445.799988 1206.160645 453.5 1209.942139 C 461.200012 1213.723633 471.662506 1219.578735 476.75 1222.953613 C 486 1229.0896 486 1229.0896 486.004059 1241.7948 C 486.006317 1248.782715 486.466614 1260.800049 487.026947 1268.5 C 487.58728 1276.199951 488.725891 1287.900024 489.557159 1294.5 C 490.388428 1301.099976 492.199738 1312.125 493.582306 1319 C 494.964844 1325.875 497.702911 1337.125 499.66684 1344 C 501.630798 1350.875 505.200836 1361.585327 507.600281 1367.800781 C 509.999725 1374.016235 514.59845 1384.366211 517.819641 1390.800781 C 521.040894 1397.235352 526.223816 1406.617798 529.33728 1411.650635 C 532.450806 1416.683472 538.242676 1425.008423 542.208191 1430.150635 C 546.173706 1435.292725 553.711609 1443.940552 558.959106 1449.367798 C 564.206604 1454.795166 572.918884 1462.743652 578.319763 1467.03125 C 583.720581 1471.318848 589.469421 1475.878296 591.09491 1477.163452 C 593.628662 1479.166626 594.138428 1480.391724 594.667664 1485.75 L 595.284912 1492 Z M 864.457947 2057 C 960.784302 2057 990.151794 2057.280273 991.865112 2057.623047 C 994.980225 2058.246094 994.980225 2058.246094 990.886597 2063.135498 C 988.635071 2065.824707 983.127014 2070.97876 978.646484 2074.588867 C 974.165894 2078.199219 966.375977 2083.597168 961.335571 2086.584473 C 956.295105 2089.571777 947.745117 2093.786621 942.335571 2095.950684 C 936.926025 2098.114746 928.450012 2101.058838 923.5 2102.493408 C 918.549988 2103.927734 909.549988 2106.013916 903.5 2107.128906 C 894.891052 2108.71582 887.174438 2109.232178 868 2109.504395 C 854.525024 2109.695557 839.697815 2109.428467 835.050659 2108.910889 C 830.403503 2108.393066 821.151733 2106.866211 814.49115 2105.517578 C 807.830627 2104.168945 798.132813 2101.679443 792.940552 2099.985352 C 787.74823 2098.291016 778.90155 2094.710693 773.281189 2092.028809 C 767.660828 2089.346924 758.981873 2084.35791 753.994568 2080.941895 C 749.007263 2077.526123 741.178162 2071.079102 736.596558 2066.615723 C 732.014954 2062.1521 725.515198 2054.760254 722.15271 2050.189697 C 718.790161 2045.619141 713.973328 2038.089844 711.448608 2033.458252 C 708.923889 2028.826538 705.285461 2021.136719 703.36322 2016.369629 C 701.440979 2011.602539 698.367188 2002.481689 696.532654 1996.101074 C 694.698059 1989.720459 692.23938 1978.875 691.06897 1972 C 689.898499 1965.125 688.658936 1954.635986 688.31427 1948.690918 C 687.687683 1937.881836 687.687683 1937.881836 691.515625 1934.690918 C 693.621033 1932.935913 697.853821 1929.811401 700.921814 1927.747559 C 703.989807 1925.683716 709.796082 1922.619141 713.824585 1920.9375 C 717.853088 1919.255859 724.59729 1916.998169 728.811646 1915.920288 C 733.026062 1914.842407 741.87677 1913.491455 748.479858 1912.918091 C 757.090454 1912.17041 763.437134 1912.193359 770.923035 1912.99939 C 776.73877 1913.625488 785.37677 1915.413574 790.430298 1917.037354 C 795.41864 1918.640137 802.328613 1921.629639 805.785828 1923.680786 C 809.242981 1925.731934 814.57312 1929.525146 817.630493 1932.110352 C 820.687927 1934.695557 825.430176 1939.440674 828.168884 1942.655273 C 830.907654 1945.869873 834.895264 1951.425049 837.030334 1955 C 839.165344 1958.574951 842.687195 1965.324951 844.856628 1970 C 847.026001 1974.675049 850.152344 1982.775024 851.804016 1988 C 853.455627 1993.224976 855.973816 2002.675049 857.399902 2009 C 858.82605 2015.324951 860.997498 2028.712524 862.225403 2038.75 L 864.457947 2057 Z M 1011 2101 C 1011 2061.021973 1011.207642 2058.134277 1012.581787 2057.606934 C 1013.451782 2057.273193 1018.159851 2057 1023.044189 2057 C 1031.924805 2057 1031.924805 2057 1031.359375 2050.25 C 1031.04834 2046.537476 1030.170288 2036.974976 1029.408203 2029 C 1028.645996 2021.025024 1027.083496 2007.974976 1025.936035 2000 C 1024.788574 1992.025024 1022.535522 1979.004883 1020.929382 1971.066406 C 1019.323181 1963.128052 1016.375366 1950.528076 1014.378601 1943.066406 C 1010.748108 1929.5 1010.748108 1929.5 1010.955383 1885.25 L 1011.162659 1841 L 989.83136 1840.945557 L 968.5 1840.891113 L 961 1831.37854 C 956.875 1826.146729 948.997742 1817.508667 943.494995 1812.182983 C 937.992249 1806.857422 929.516663 1799.518311 924.660339 1795.873779 C 919.804077 1792.229492 911.058472 1786.405029 905.225708 1782.93042 C 899.392944 1779.456055 889.33667 1774.251709 882.878418 1771.365234 C 876.420166 1768.478882 865.525085 1764.323486 858.667114 1762.131104 C 851.809082 1759.938599 841.091003 1757.011475 834.848999 1755.626221 C 828.607056 1754.240967 818.775024 1752.407593 813 1751.552002 C 807.224976 1750.696533 794.962524 1749.456787 785.75 1748.797119 C 776.537476 1748.137451 769 1747.278076 769 1746.887451 C 769 1746.496826 774.962524 1743.195801 782.25 1739.551758 C 789.537476 1735.907837 800.224976 1731.337402 806 1729.395508 C 811.775024 1727.453369 821.900024 1724.540527 828.5 1722.922119 C 835.099976 1721.303955 846.575012 1719.10498 854 1718.035522 C 861.424988 1716.966187 874.398315 1715.620605 882.829529 1715.045654 C 891.260803 1714.470459 923.580261 1714 954.650513 1714 L 1011.141968 1714 L 1010.755554 1680.25 C 1010.436768 1652.40271 1010.072815 1645.450684 1008.674622 1640.5 C 1007.742676 1637.199951 1005.170776 1630.803711 1002.959412 1626.285889 C 1000.166748 1620.580566 997.018127 1616.122681 992.65033 1611.689819 C 989.191711 1608.17981 983.670593 1603.730591 980.381104 1601.802612 C 977.091614 1599.874756 971.497681 1597.149536 967.950134 1595.746704 C 964.402527 1594.343872 957.900024 1592.458984 953.5 1591.557983 C 949.099976 1590.657104 940.511475 1589.648071 934.414368 1589.315796 C 927.705139 1588.950195 919.417419 1589.203979 913.421082 1589.95874 C 907.971863 1590.644653 899.685425 1592.302368 895.006714 1593.6427 C 890.328003 1594.98291 883.264038 1597.601807 879.308899 1599.462524 C 875.353821 1601.32312 869.46106 1604.649658 866.213867 1606.854736 C 862.966675 1609.059937 857.684692 1613.257202 854.476074 1616.182007 C 851.267517 1619.106934 845.957397 1625.099976 842.675903 1629.5 C 838.73645 1634.782227 836.113403 1637.425049 834.954773 1637.279541 C 833.989685 1637.158203 805.829895 1625.785645 772.377563 1612.00708 C 738.925171 1598.228394 711.099854 1586.499878 710.543579 1585.943604 C 709.861694 1585.261719 710.796509 1581.187378 713.413025 1573.43811 C 715.547485 1567.116455 719.815247 1556.880005 722.896912 1550.690674 C 725.978638 1544.501221 730.915466 1535.795166 733.867676 1531.343872 L 739.235352 1523.25061 L 767.867676 1522.709595 C 789.181946 1522.307007 799.950439 1521.651855 810 1520.146606 C 817.424988 1519.034424 828 1517.150879 833.5 1515.96106 C 839 1514.77124 848.450012 1512.29248 854.5 1510.452881 C 860.549988 1508.613159 869.958496 1505.285156 875.407776 1503.057129 C 880.857056 1500.829102 890.043762 1496.503662 895.822754 1493.445068 C 901.601685 1490.386353 910.221924 1485.218262 914.97876 1481.960205 C 919.735596 1478.702148 927.958801 1472.421265 933.252563 1468.002686 C 938.546326 1463.584106 946.392639 1456.104126 950.688782 1451.380493 C 958.5 1442.792236 958.5 1442.792236 966.5 1443.482422 C 970.900024 1443.861938 979.900024 1445.050171 986.5 1446.122925 C 993.099976 1447.195557 1003.170288 1449.218872 1008.878418 1450.619263 C 1014.586548 1452.019531 1024.415649 1454.944092 1030.720947 1457.118164 C 1037.026245 1459.292358 1046.414673 1463.047729 1051.584229 1465.463501 C 1056.753662 1467.87915 1064.821655 1472.174194 1069.512939 1475.007813 C 1074.204102 1477.841431 1081.692139 1482.865967 1086.152832 1486.173462 C 1090.613647 1489.480835 1098.260864 1496.040527 1103.146729 1500.750488 C 1108.032593 1505.460571 1114.449341 1512.281006 1117.406128 1515.907104 C 1120.362915 1519.533203 1125.241821 1526.185425 1128.248291 1530.689819 C 1131.254639 1535.194214 1135.545532 1542.399048 1137.783325 1546.700562 C 1140.02124 1551.002075 1143.47229 1558.539917 1145.452271 1563.451294 C 1147.432251 1568.362671 1150.364868 1576.907837 1151.969238 1582.440552 C 1153.573486 1587.973267 1155.830566 1597.163208 1156.984985 1602.862793 C 1158.139404 1608.562256 1159.735107 1619.362305 1160.53125 1626.862793 C 1161.750366 1638.349609 1161.980225 1676.806519 1161.989258 1870.75 L 1162 2101 L 1086.5 2101 L 1011 2101 Z M 1903 2017 L 1882.361572 2017 L 1877.23938 2001.25 C 1874.422119 1992.587524 1860.61145 1949.388916 1846.548828 1905.253174 C 1832.486328 1861.11731 1794.648804 1742.430664 1762.465576 1641.504883 C 1730.282471 1540.579224 1703.680542 1456.652832 1703.350342 1455.001831 C 1702.75 1452 1702.75 1452 1774.343628 1452 C 1831.164185 1452 1845.855103 1451.742065 1845.539063 1450.75 C 1845.320068 1450.0625 1803.448975 1318.628906 1752.492188 1158.675171 C 1701.5354 998.721558 1660.089478 867.209106 1660.390381 866.425171 C 1660.8573 865.208252 1672.476196 865 1739.909546 865 C 1785.773315 865 1819.115723 865.378296 1819.439575 865.902222 C 1819.746216 866.398438 1843.151611 957.410889 1871.45166 1068.152222 C 1899.751587 1178.893555 1923.651001 1271.944336 1924.561401 1274.931885 C 1925.723267 1278.744263 1926.458862 1279.931519 1927.02832 1278.913818 C 1927.474609 1278.116455 1940.960449 1225.618286 1956.996826 1162.251221 C 1973.033203 1098.884277 1991.061279 1027.567383 1997.059204 1003.769287 C 2003.057129 979.971191 2008.085083 959.411987 2008.2323 958.082275 C 2008.491455 955.741943 2008.132324 955.605225 1997 953.807007 C 1990.675049 952.785278 1979.970703 950.589722 1973.212646 948.927979 C 1966.454468 947.266235 1956.416504 944.33728 1950.906006 942.419067 C 1945.395386 940.500977 1936.52478 936.988281 1931.193359 934.613159 C 1925.862061 932.238037 1917.333374 927.865845 1912.240723 924.897339 C 1907.148193 921.928833 1898.82312 916.575073 1893.740723 913.000122 C 1888.658325 909.425049 1878.383301 900.425049 1870.907471 893.000122 C 1863.431519 885.575073 1854.337036 875.449951 1850.697632 870.5 C 1847.058228 865.550049 1841.328979 856.702881 1837.965942 850.839722 C 1834.603027 844.976563 1830.032227 835.976563 1827.808838 830.839722 C 1825.585327 825.702881 1822.063354 816.324951 1819.982178 810 C 1817.901123 803.675049 1815.021973 793.240479 1813.584106 786.812256 C 1812.14624 780.384033 1810.299927 770.708984 1809.481201 765.312256 C 1808.662476 759.915527 1807.48999 748.074951 1806.875488 739 C 1806.111328 727.713623 1805.911743 689.006714 1806.243652 616.5 C 1806.701416 516.506104 1806.844604 509.701172 1808.770996 496.401855 C 1809.894165 488.647949 1811.802979 477.397949 1813.012939 471.401855 C 1814.2229 465.405762 1816.721436 455.324951 1818.56543 449 C 1820.409302 442.675049 1823.743652 432.837158 1825.975098 427.138184 C 1828.206421 421.439209 1832.513184 411.926025 1835.545654 405.997559 C 1838.578125 400.069336 1844.147339 390.557129 1847.921631 384.859375 C 1851.696045 379.161621 1857.864624 370.899902 1861.629761 366.5 C 1865.394775 362.100098 1871.405884 355.630615 1874.987671 352.123779 C 1878.569458 348.616943 1884.650024 343.167725 1888.5 340.014404 C 1892.349976 336.861084 1900.093384 331.271973 1905.707397 327.59375 C 1911.321411 323.915771 1921.896484 318.039551 1929.207397 314.535645 C 1936.518311 311.031738 1947.449951 306.51709 1953.5 304.503174 C 1959.550049 302.489014 1969.223145 299.725098 1974.99585 298.360596 C 1980.768555 296.996338 1991.11853 295.027344 1997.99585 293.985352 C 2004.873169 292.943359 2018.150024 291.568848 2027.5 290.930664 C 2037.394409 290.255615 2050.560547 290.054932 2059 290.450684 C 2066.975098 290.824707 2078.849365 291.789795 2085.387451 292.595215 C 2091.925537 293.400635 2102.325928 295.129639 2108.499268 296.437256 C 2114.672607 297.744629 2125.298096 300.672363 2132.111572 302.943359 C 2138.925293 305.214111 2150.05957 309.753174 2156.854492 313.029785 C 2163.649414 316.306396 2173.549316 321.833496 2178.854492 325.311768 C 2184.159424 328.790283 2192.550049 335.011475 2197.5 339.136719 C 2202.449951 343.261963 2210.033691 350.431396 2214.352539 355.068604 C 2218.671143 359.705811 2225.489502 367.848145 2229.504395 373.162598 C 2233.519043 378.477051 2239.30542 387.026855 2242.362793 392.162598 C 2245.420166 397.298096 2250.606934 407.125 2253.888428 414 C 2257.170166 420.875 2262.113037 433.125 2264.872559 441.222412 C 2267.632324 449.31958 2271.23999 461.469482 2272.889893 468.222412 C 2274.539551 474.975098 2276.814697 485.899902 2277.945557 492.5 C 2279.076416 499.100098 2280.72583 509.899902 2281.611084 516.5 C 2282.935303 526.374268 2283.301758 542.450684 2283.679932 607.25 L 2284.139648 686 L 2126.819824 686.008667 C 2040.293945 686.013428 1967.137451 686.301147 1964.25 686.647949 C 1959 687.278564 1959 687.278564 1959 707.415527 C 1959 718.490845 1959.459839 731.219604 1960.021851 735.701538 C 1960.58374 740.183472 1961.927856 747.371704 1963.008667 751.675293 C 1964.089355 755.978882 1967.200562 764 1969.922363 769.5 C 1972.644165 775 1977.061035 782.075195 1979.737671 785.222778 C 1982.414429 788.370361 1987.428101 793.211792 1990.879395 795.981567 C 1994.330566 798.751343 2000.832031 802.785645 2005.327148 804.946655 C 2009.822266 807.107788 2017.099976 809.784424 2021.5 810.894775 C 2025.900024 812.005249 2034.753906 813.426514 2041.175293 814.053223 C 2049.860352 814.900879 2055.526123 814.904663 2063.298096 814.067871 C 2069.044434 813.449219 2077.048096 812.027954 2081.084229 810.909424 C 2085.120361 809.791016 2092.4021 806.820557 2097.265869 804.308472 C 2103.385498 801.147827 2108.584961 797.412231 2114.146729 792.179932 C 2118.567383 788.021362 2123.880615 782.117065 2125.953613 779.059448 C 2128.026855 776.001709 2130.906494 771.160034 2132.353027 768.300171 C 2133.799316 765.440308 2136.22583 759.967896 2137.745117 756.139404 L 2140.507324 749.178467 L 2208.503662 774.939209 C 2276.5 800.699951 2276.5 800.699951 2276.163818 803.461792 C 2275.97876 804.980835 2274.794922 809.660889 2273.532715 813.861816 C 2272.270508 818.062866 2269.55249 826 2267.492432 831.5 C 2265.432129 837 2261.376221 846.224976 2258.47876 852 C 2255.581543 857.775024 2250.54541 866.550049 2247.287354 871.5 C 2244.029541 876.449951 2237.90918 884.617432 2233.686523 889.64978 C 2229.463867 894.682129 2222.069336 902.235229 2217.254395 906.434448 C 2212.439453 910.633667 2204.636719 916.727661 2199.915039 919.976563 C 2195.193115 923.225586 2186.623291 928.374878 2180.87085 931.419556 L 2170.411865 936.9552 L 2082.105469 1213.945435 C 2033.536865 1366.290039 1992.156616 1496.012573 1990.149414 1502.217773 L 1986.5 1513.5 L 1932.626709 1513.758789 C 1878.75354 1514.017456 1878.75354 1514.017456 1879.319214 1516.758789 C 1879.630371 1518.266479 1899.278931 1595.324951 1922.982788 1688 C 1946.686646 1780.675049 1966.799316 1858.974976 1967.677612 1862 C 1969.274536 1867.5 1969.274536 1867.5 1970.537842 1864.5 C 1971.232666 1862.849976 1977.490845 1838.892578 1984.444946 1811.26123 C 1991.398926 1783.629883 2008.306519 1716.689209 2022.017212 1662.504395 C 2035.728027 1608.319458 2053.326172 1538.789429 2061.124512 1507.993164 L 2075.302979 1452 L 2155.759766 1452 C 2236.216797 1452 2236.216797 1452 2235.644287 1454.25 C 2235.329346 1455.487549 2195.697754 1579.970093 2147.574463 1730.878174 C 2099.450928 1881.786011 2059.856445 2005.477051 2059.586426 2005.746826 C 2059.316406 2006.016846 2053.418213 2006.632935 2046.479248 2007.115967 C 2039.540161 2007.599121 2029.731079 2008.863037 2024.681396 2009.924805 C 2019.631592 2010.986572 2011.510864 2013.218262 2006.635254 2014.884277 C 2001.759521 2016.550293 1993.60022 2019.942017 1988.503296 2022.421509 C 1983.406372 2024.901001 1975.245483 2029.605591 1970.368042 2032.876221 C 1965.490601 2036.146729 1957.165161 2042.448608 1951.866943 2046.880371 C 1946.568726 2051.312256 1939.422974 2057.989502 1935.987549 2061.719238 C 1932.552002 2065.44873 1927.37561 2071.425049 1924.484131 2075 C 1921.592773 2078.574951 1916.705566 2085.028564 1913.623535 2089.341309 C 1908.296753 2096.794922 1907.974365 2097.062744 1907.098633 2094.759277 C 1906.591919 2093.426514 1905.462402 2089.928711 1904.588623 2086.986572 C 1903.280273 2082.580566 1903 2075.936035 1903 2049.318359 L 1903 2017 Z M 1448.029175 1513.925293 L 1466.5 1514.5 L 1466.781982 1526.906982 L 1467.064087 1539.314087 L 1475.608276 1526.656982 L 1484.152466 1514 L 1541.576172 1514 L 1599 1514 L 1599 1478.571899 C 1599 1443.143921 1599 1443.143921 1604.642578 1442.438965 C 1607.745972 1442.051147 1616.633545 1441.974121 1624.392578 1442.267578 C 1635.642822 1442.693237 1640.312744 1443.338623 1647.450684 1445.454468 C 1652.373535 1446.913696 1659.838501 1449.895752 1664.039551 1452.081421 C 1668.240601 1454.26709 1674.626221 1458.487305 1678.229858 1461.459717 L 1684.78186 1466.864014 L 1673.060303 1502.682007 C 1666.613403 1522.381958 1655.367432 1556.410034 1648.069336 1578.300049 C 1640.77124 1600.190063 1634.507568 1617.964355 1634.150024 1617.798584 C 1633.79248 1617.632813 1631.30835 1616.486694 1628.629761 1615.251587 C 1625.951172 1614.016602 1620.993042 1612.151611 1617.611816 1611.1073 C 1614.230591 1610.062866 1607.872192 1608.598999 1603.482056 1607.854248 C 1599.061768 1607.104248 1588.360596 1606.5 1579.5 1606.5 C 1570.672363 1606.5 1559.913818 1607.105835 1555.5 1607.85144 C 1551.099976 1608.594727 1543.900024 1610.335693 1539.5 1611.720215 C 1535.099976 1613.104736 1528.125 1615.934814 1524 1618.009399 C 1519.875 1620.083862 1513.800049 1623.781006 1510.5 1626.225342 C 1507.199951 1628.669556 1501.54126 1633.818848 1497.924927 1637.667969 C 1494.308716 1641.517212 1489.189819 1648.132324 1486.549683 1652.368164 C 1483.909668 1656.604004 1480.255371 1663.541504 1478.429077 1667.78479 C 1476.602783 1672.028198 1473.979492 1679.417725 1472.599487 1684.206055 C 1471.219482 1688.994263 1469.39502 1697.897217 1468.545166 1703.990479 C 1467.208008 1713.577637 1466.998169 1735.355103 1466.986328 1865.784424 C 1466.978882 1948.677979 1466.701294 2017.512451 1466.369751 2018.75 C 1466.038086 2019.987549 1465.481689 2020.969482 1465.133423 2020.932007 C 1464.785034 2020.894653 1460.900024 2019.786377 1456.5 2018.469238 C 1452.099976 2017.1521 1443.324951 2014.962158 1437 2013.602539 C 1430.675049 2012.24292 1418.974976 2010.313721 1411 2009.315308 C 1399.840332 2007.918213 1389.473755 2007.5 1366 2007.5 C 1339.430298 2007.5 1333.438232 2007.797363 1319.5 2009.808228 C 1310.699951 2011.077759 1302.300537 2012.360352 1300.834473 2012.658691 C 1298.266602 2013.180908 1298.145874 2013.004883 1297.538696 2007.850342 C 1297.192017 2004.907715 1297.041504 1895.099976 1297.204224 1763.833252 C 1297.366943 1632.56665 1297.812622 1524.854004 1298.194702 1524.471924 C 1298.576782 1524.089966 1305.589111 1523.404297 1313.77771 1522.948364 C 1321.966431 1522.492432 1332.903809 1521.391235 1338.08313 1520.501099 C 1343.262451 1519.611084 1350.956055 1518.007568 1355.180054 1516.937988 C 1359.404053 1515.868286 1366.828979 1513.592529 1371.680054 1511.880493 C 1376.531006 1510.168579 1384.543091 1506.737549 1389.484741 1504.255981 C 1394.426392 1501.774536 1401.851318 1497.482666 1405.984741 1494.71875 C 1410.118164 1491.954712 1418.496094 1484.699829 1424.602539 1478.59668 C 1430.708984 1472.49353 1437.799683 1464.349976 1440.359741 1460.5 C 1442.9198 1456.650024 1445.573608 1453.5 1446.257202 1453.5 C 1447.214355 1453.5 1447.560791 1460.44397 1447.764648 1483.712646 L 1448.029175 1513.925293 Z M 3426.5 1960.550537 C 3435.796387 1960.261597 3441.634766 1959.535645 3446.99292 1958.002441 C 3451.114014 1956.823242 3457.188965 1954.442871 3460.49292 1952.712891 C 3463.948975 1950.903076 3469.726318 1946.368164 3474.097168 1942.033691 C 3480.188965 1935.993042 3482.62793 1932.614014 3486.404053 1924.983398 C 3489.90332 1917.912109 3491.631348 1912.772827 3493.129639 1904.983398 C 3495.094482 1894.766479 3495.137451 1891.411865 3494.817627 1773 C 3494.489502 1651.5 3494.489502 1651.5 3492.223633 1643.5 C 3490.977539 1639.099976 3488.066895 1631.675049 3485.755371 1627 C 3482.587646 1620.592896 3479.699463 1616.627563 3474.026367 1610.895752 C 3468.14209 1604.950806 3464.645508 1602.390625 3458 1599.162109 C 3452.667969 1596.571655 3446.280762 1594.41748 3440.862061 1593.38208 C 3434.381592 1592.143799 3428.886719 1591.858765 3418.862061 1592.241089 C 3408.157715 1592.649292 3403.908936 1593.267578 3397.5 1595.349731 C 3393.100098 1596.779297 3386.630371 1599.647827 3383.122803 1601.724365 C 3379.611816 1603.803101 3373.716309 1608.740234 3370.005371 1612.709351 C 3365.916992 1617.082153 3361.688477 1622.983887 3359.257568 1627.709351 C 3357.053223 1631.994141 3354.285156 1638.452637 3353.106201 1642.061279 C 3351.927246 1645.670044 3350.231201 1652.195068 3349.337646 1656.561279 C 3347.921143 1663.480957 3347.651611 1677.464111 3347.236816 1765.5 C 3346.911377 1834.577148 3347.113281 1871.240967 3347.875732 1881.5 C 3348.489014 1889.75 3349.851563 1899.880249 3350.904053 1904.011719 C 3351.956543 1908.143066 3354.001221 1914.480103 3355.447998 1918.093994 C 3356.894775 1921.708008 3359.669678 1927.102783 3361.614502 1930.082397 C 3363.559082 1933.062012 3367.479004 1937.914551 3370.325195 1940.865845 C 3373.171387 1943.817017 3377.938232 1947.816895 3380.918457 1949.754395 C 3383.898682 1951.691895 3388.962891 1954.343994 3392.172119 1955.648071 C 3395.381348 1956.952148 3401.493164 1958.679565 3405.753662 1959.486816 C 3411.010498 1960.482788 3417.677734 1960.824707 3426.5 1960.550537 Z M 2396 1252 L 2466 1252 L 2466 1303.5 L 2466 1355 L 2443.172119 1355 C 2420.344238 1355 2420.344238 1355 2415.673584 1349.25 C 2413.104736 1346.087524 2409.461914 1340.574951 2407.578369 1337 C 2405.694824 1333.425049 2403.008057 1327.087402 2401.60791 1322.916504 C 2400.207764 1318.745483 2398.375 1311.095581 2397.535156 1305.916504 C 2396.494873 1299.501343 2396.006836 1289.408081 2396.003906 1274.25 L 2396 1252 Z M 595.137451 340 C 428.090637 340 428.090637 340 427.562439 336.75 C 427.271942 334.962402 426.537476 329 425.930298 323.5 C 425.32309 318 423.947571 308.550049 422.873505 302.5 C 421.799469 296.449951 419.748688 287 418.316223 281.5 C 416.883759 276 414.24472 267.636963 412.451691 262.915283 C 410.658661 258.193604 407.613556 251.21875 405.684753 247.415283 C 403.755981 243.611816 400.414795 237.800049 398.259888 234.5 C 396.10498 231.199951 391.902466 225.833008 388.920959 222.572998 C 385.939423 219.313232 380.799988 214.651855 377.5 212.214355 C 374.200012 209.776855 368.575012 206.30835 365 204.506836 C 361.424988 202.705078 355.544678 200.319092 351.932648 199.204346 C 348.320587 198.089844 340.895599 196.63916 335.432648 195.980469 C 329.443726 195.258545 321.462402 195.049072 315.330963 195.453125 C 309.737976 195.821533 301.182129 196.938232 296.317963 197.934814 C 291.453796 198.931396 284.329895 200.990723 280.48703 202.510986 C 276.644165 204.031494 270.575012 206.977539 267 209.058105 C 263.424988 211.138428 258.024994 214.958496 255 217.546631 C 251.975006 220.13501 247.519867 224.55835 245.099716 227.376465 C 242.679565 230.194336 239.209839 234.75 237.389221 237.5 C 235.568604 240.25 232.298889 246.324951 230.123169 251 C 227.947464 255.675049 225.040405 263.407227 223.663055 268.182861 C 222.28569 272.958496 220.413925 282.408447 219.503571 289.182861 C 217.999527 300.375244 217.880768 319.717529 218.203003 501 C 218.557617 700.5 218.557617 700.5 220.807297 710.28894 C 222.044632 715.672852 224.595779 724.383179 226.476517 729.645264 C 228.357269 734.907349 231.761368 742.4729 234.041199 746.45752 C 236.32103 750.442139 240.956924 757.000366 244.34317 761.03125 C 247.729431 765.062134 253.649994 770.78064 257.5 773.738892 C 261.350006 776.697144 268.549988 781.092285 273.5 783.505859 C 278.450012 785.919434 286.100006 788.826172 290.5 789.96521 C 294.899994 791.10437 302.773926 792.54126 307.99762 793.158447 C 313.324921 793.78772 322.545776 794.018188 328.99762 793.683228 C 335.337616 793.354126 344.090485 792.162842 348.5 791.028931 C 352.899994 789.897461 360.549988 786.952881 365.5 784.485596 C 370.450012 782.018188 377.704498 777.336914 381.621124 774.08252 C 385.53772 770.828247 391.681183 764.249634 395.273285 759.463501 C 398.865356 754.677368 403.915497 746.480103 406.495819 741.247437 C 409.076141 736.014771 412.945374 726.379639 415.094086 719.83606 C 417.242798 713.29248 420.110565 702.439941 421.466858 695.71936 C 422.823151 688.998657 424.619659 677.650024 425.459076 670.5 C 426.298523 663.350098 427.241211 655.587402 427.553925 653.25 C 428.122559 649 428.122559 649 503.561279 649 C 545.052551 649 579 649.374023 579 649.831299 C 579 650.28833 574.051636 655.272461 568.003662 660.906738 C 561.955688 666.541138 553.362732 675.504517 548.908264 680.825562 C 544.453796 686.146484 537.200623 695.884766 532.7901 702.466309 C 528.379578 709.047729 521.246277 721.647705 516.938354 730.466309 C 512.630432 739.28479 507.259155 751.900024 505.002228 758.5 C 502.74527 765.099976 499.584747 775.449951 497.978821 781.5 C 496.372894 787.550049 493.918365 798.800049 492.524323 806.5 C 491.130249 814.199951 489.302368 826.349976 488.462372 833.5 C 487.583771 840.978271 486.675659 860.431519 486.324402 879.299438 L 485.713745 912.098877 L 476.606873 918.134644 C 471.598083 921.454346 460.75 927.493774 452.5 931.555664 C 444.25 935.617432 431.424988 940.939331 424 943.38208 C 416.575012 945.824829 405.325012 948.974609 399 950.381836 C 392.674988 951.78894 382.774994 953.624878 377 954.461548 C 371.225006 955.29834 361.549988 956.436401 355.5 956.990601 C 349.450012 957.5448 333.924988 957.937378 321 957.862915 C 308.075012 957.788452 293.674988 957.373291 289 956.94043 C 284.325012 956.50769 276.450012 955.627563 271.5 954.984741 C 266.549988 954.342041 257.170776 952.746704 250.657257 951.439697 C 244.143738 950.13269 233.793747 947.644409 227.657257 945.910156 C 221.520767 944.175903 211.44429 940.806519 205.265091 938.422485 C 199.085876 936.038574 188.285889 931.160034 181.265091 927.581299 C 174.244293 924.002563 164.675003 918.526123 160 915.411377 C 155.324997 912.296631 147.675003 906.776611 143 903.144653 C 138.324997 899.512695 129.550003 891.548584 123.5 885.446533 C 117.449997 879.344482 108.522881 868.972046 103.661964 862.396606 C 98.801041 855.821167 92.088066 845.729492 88.744232 839.970703 C 85.400406 834.211792 80.288284 824.286865 77.383972 817.915283 C 74.47966 811.543823 70.066605 800.384277 67.577179 793.116455 C 65.087753 785.848633 61.683453 774.343262 60.012058 767.549072 C 58.34066 760.754761 55.877548 748.198364 54.538475 739.645874 C 53.199398 731.093506 51.573719 716.761841 50.925858 707.797974 C 50.08152 696.115723 49.747246 635.991943 49.745529 495.5 C 49.743881 360.90625 50.095112 294.330566 50.866604 283 C 51.484512 273.925049 52.857178 260.635742 53.916965 253.468506 C 54.976757 246.30127 57.048962 235.05127 58.521866 228.468506 C 59.994774 221.885742 62.745277 211.391846 64.634102 205.148682 C 66.522919 198.905273 69.809685 189.404053 71.938026 184.034912 C 74.06636 178.665527 78.35405 169.190674 81.466225 162.979248 C 84.578392 156.768066 89.74588 147.515625 92.949532 142.418457 C 96.153183 137.321045 101.412621 129.630371 104.637177 125.327637 C 107.861732 121.024658 115.675003 112.1604 122 105.628906 C 128.324997 99.097412 137.100006 90.849121 141.5 87.299561 C 145.899994 83.75 153.826675 77.974365 159.114822 74.465088 C 164.402985 70.955811 173.402985 65.619873 179.114822 62.607422 C 184.826675 59.595215 194.449997 55.111328 200.5 52.643799 C 206.550003 50.176025 216.692566 46.583252 223.039032 44.660156 C 229.385483 42.736816 240.117981 39.993408 246.888992 38.563721 C 253.660019 37.134277 266.242462 35.051025 274.849976 33.93457 C 283.457489 32.818115 300.020905 31.63208 311.657562 31.298828 C 324.504059 30.930908 339.234741 31.158203 349.157562 31.877197 C 358.145905 32.528809 370.225006 33.746582 376 34.58374 C 381.774994 35.420898 391.674988 37.238037 398 38.62207 C 404.325012 40.005859 416.06778 43.313965 424.095093 45.973633 C 432.122375 48.633057 443.597382 53.118896 449.595093 55.942383 C 455.592773 58.765625 464.549988 63.493164 469.5 66.448242 C 474.450012 69.40332 482.303741 74.659912 486.952759 78.129639 C 491.601807 81.599121 499.887207 88.727051 505.364777 93.968994 C 510.842346 99.210938 518.613831 107.439941 522.634766 112.255127 C 526.655701 117.070557 533.55481 126.465332 537.966125 133.132568 C 542.377502 139.799805 549.04126 151.38501 552.774536 158.877441 C 556.507813 166.369873 561.239746 176.774902 563.289856 182 C 565.340027 187.225098 568.754456 196.675049 570.877502 203 C 573.000488 209.324951 576.41803 221.024902 578.472046 229 C 580.526001 236.975098 583.254883 248.899902 584.536255 255.5 C 585.817627 262.100098 587.779846 273.574951 588.89679 281 C 590.013672 288.425049 591.579529 301.024902 592.376526 309 C 593.173523 316.975098 594.120728 327.212402 594.481506 331.75 L 595.137451 340 Z M 864.457947 905 C 960.784302 905 990.151794 905.280396 991.865112 905.623047 C 994.980225 906.246094 994.980225 906.246094 990.886597 911.135498 C 988.635071 913.824585 983.127014 918.97876 978.646484 922.588989 C 974.165894 926.199219 966.375977 931.59729 961.335571 934.584595 C 956.295105 937.571777 947.745117 941.786499 942.335571 943.950562 C 936.926025 946.114624 928.450012 949.058838 923.5 950.493286 C 918.549988 951.927856 909.549988 954.013916 903.5 955.129028 C 894.891052 956.71582 887.174438 957.232178 868 957.504272 C 854.525024 957.695557 839.697815 957.428467 835.050659 956.910767 C 830.403503 956.393188 821.151733 954.866211 814.49115 953.517578 C 807.830627 952.168945 798.132813 949.679443 792.940552 947.985229 C 787.74823 946.291138 778.90155 942.710693 773.281189 940.028809 C 767.660828 937.346924 758.981873 932.357788 753.994568 928.941895 C 749.007263 925.526001 741.178162 919.079224 736.596558 914.615601 C 732.014954 910.151978 725.515198 902.760376 722.15271 898.189697 C 718.790161 893.619019 713.973328 886.089844 711.448608 881.458252 C 708.923889 876.826538 705.285461 869.136719 703.36322 864.369629 C 701.440979 859.602539 698.367188 850.481689 696.532654 844.101074 C 694.698059 837.720459 692.23938 826.875 691.06897 820 C 689.898499 813.125 688.658936 802.635864 688.31427 796.690918 C 687.687683 785.881836 687.687683 785.881836 691.515625 782.690918 C 693.621033 780.935913 697.853821 777.811401 700.921814 775.747559 C 703.989807 773.683716 709.796082 770.619263 713.824585 768.937622 C 717.853088 767.255981 724.59729 764.998169 728.811646 763.920288 C 733.026062 762.842407 741.87677 761.491455 748.479858 760.918091 C 757.090454 760.17041 763.437134 760.193359 770.923035 760.99939 C 776.73877 761.62561 785.37677 763.413574 790.430298 765.037354 C 795.41864 766.640015 802.328613 769.629639 805.785828 771.680786 C 809.242981 773.731934 814.57312 777.525269 817.630493 780.110352 C 820.687927 782.695435 825.430176 787.440674 828.168884 790.655273 C 830.907654 793.869873 834.895264 799.425049 837.030334 803 C 839.165344 806.574951 842.687195 813.324951 844.856628 818 C 847.026001 822.675049 850.152344 830.775024 851.804016 836 C 853.455627 841.224976 855.973816 850.675049 857.399902 857 C 858.82605 863.324951 860.997498 876.712524 862.225403 886.75 L 864.457947 905 Z M 4335.5 865.01001 C 4283.872559 945.85437 4283.872559 945.85437 4278.686035 944.335938 C 4275.833984 943.500732 4268.92041 941.037231 4263.323242 938.86145 C 4257.725586 936.685669 4248.725586 932.635498 4243.323242 929.860962 C 4237.92041 927.086548 4229.225098 922.009766 4224 918.579346 C 4218.774902 915.148926 4211.125 909.614746 4207 906.28125 C 4202.875 902.947632 4194.993164 895.558105 4189.484863 889.860107 C 4183.976074 884.161987 4176.857422 876.004761 4173.665527 871.73291 C 4170.473633 867.46106 4165.868164 860.731689 4163.431152 856.778931 C 4159 849.591919 4159 849.591919 4159 731.935547 C 4159 667.224487 4158.713867 612.191406 4158.364258 609.639648 C 4157.728027 605 4157.728027 605 4142.754395 605 L 4127.780762 605 L 4128.318848 557.75 C 4128.769531 518.176758 4129.178223 508.209473 4130.834961 496.401855 C 4131.922852 488.647949 4133.803223 477.397949 4135.012695 471.401855 C 4136.222656 465.405762 4138.72168 455.324951 4140.56543 449 C 4142.40918 442.675049 4145.743652 432.837158 4147.975098 427.138184 C 4150.206543 421.439209 4154.513184 411.926025 4157.545898 405.997559 C 4160.578125 400.069336 4166.147461 390.557129 4169.921875 384.859375 C 4173.695801 379.161621 4179.864746 370.899902 4183.629883 366.5 C 4187.39502 362.100098 4193.405762 355.630615 4196.987793 352.123779 C 4200.569336 348.616943 4206.649902 343.167725 4210.5 340.014404 C 4214.350098 336.861084 4222.093262 331.271973 4227.70752 327.59375 C 4233.321289 323.915771 4243.896484 318.039551 4251.20752 314.535645 C 4258.518555 311.031738 4269.450195 306.51709 4275.5 304.503174 C 4281.549805 302.489014 4291.223145 299.725098 4296.995605 298.360596 C 4302.768555 296.996338 4313.118652 295.027344 4319.995605 293.985352 C 4326.873047 292.943359 4340.149902 291.568848 4349.5 290.930664 C 4359.394531 290.255615 4372.560547 290.054932 4381 290.450684 C 4388.975098 290.824707 4400.849609 291.789795 4407.387695 292.595215 C 4413.925781 293.400635 4424.325684 295.129639 4430.499023 296.437256 C 4436.672363 297.744629 4447.29834 300.672363 4454.111816 302.943359 C 4460.925293 305.214111 4472.05957 309.753174 4478.854492 313.029785 C 4485.649414 316.306396 4495.549316 321.833496 4500.854492 325.311768 C 4506.159668 328.790283 4514.549805 335.011475 4519.5 339.136719 C 4524.450195 343.261963 4532.033691 350.431396 4536.352539 355.068604 C 4540.671387 359.705811 4547.489746 367.848145 4551.504395 373.162598 C 4555.519043 378.477051 4561.305176 387.026855 4564.362793 392.162598 C 4567.42041 397.298096 4572.606934 407.125 4575.888672 414 C 4579.17041 420.875 4584.130371 433.175537 4586.910645 441.334473 C 4589.691406 449.493652 4593.305664 461.643555 4594.941895 468.334473 C 4596.578125 475.025635 4598.835938 485.899902 4599.959473 492.5 C 4601.08252 499.100098 4602.726074 509.899902 4603.61084 516.5 C 4604.935059 526.374268 4605.301758 542.450684 4605.679688 607.25 L 4606.139648 686 L 4448.819824 686.008667 C 4362.293945 686.013428 4289.137695 686.301147 4286.25 686.647949 C 4281 687.278564 4281 687.278564 4281 707.415527 C 4281 718.490845 4281.459961 731.219604 4282.021973 735.701538 C 4282.583984 740.183472 4283.927734 747.371704 4285.008789 751.675293 C 4286.089355 755.978882 4289.200684 764 4291.922363 769.5 C 4294.644043 775 4299.061035 782.075195 4301.737793 785.222778 C 4304.414551 788.370361 4309.428223 793.211792 4312.879395 795.981567 C 4316.330566 798.751343 4322.832031 802.785645 4327.327148 804.946655 C 4331.822266 807.107788 4339.100098 809.784424 4343.5 810.894775 C 4347.899902 812.005249 4356.753906 813.426514 4363.175293 814.053223 C 4371.860352 814.900879 4377.526367 814.904663 4385.29834 814.067871 C 4391.044434 813.449219 4399.04834 812.027954 4403.084473 810.909424 C 4407.120605 809.791016 4414.402344 806.820557 4419.266113 804.308472 C 4425.385254 801.147827 4430.584961 797.412231 4436.146973 792.179932 C 4440.567383 788.021362 4445.880371 782.117065 4447.953613 779.059448 C 4450.026855 776.001709 4452.906738 771.160034 4454.353027 768.300171 C 4455.799316 765.440308 4458.226074 759.967896 4459.745117 756.139404 L 4462.507324 749.178467 L 4530.503906 774.939209 C 4598.5 800.699951 4598.5 800.699951 4598.163574 803.461792 C 4597.979004 804.980835 4596.794922 809.660889 4595.532715 813.861816 C 4594.270508 818.062866 4591.552246 826 4589.492188 831.5 C 4587.432129 837 4583.375977 846.224976 4580.479004 852 C 4577.581543 857.775024 4572.54541 866.550049 4569.287598 871.5 C 4566.029297 876.449951 4559.90918 884.617432 4555.686523 889.64978 C 4551.463867 894.682129 4544.069336 902.247192 4539.254395 906.46106 C 4534.439453 910.674927 4525.833496 917.265015 4520.130371 921.105591 C 4514.426758 924.946289 4504.751953 930.538208 4498.630371 933.532349 C 4492.508789 936.526367 4483.698242 940.359253 4479.051758 942.049805 C 4474.405762 943.740356 4466.980469 946.161255 4462.551758 947.429688 C 4458.123535 948.697998 4452.756836 950.051025 4450.625977 950.436401 C 4446.751953 951.137085 4446.751953 951.137085 4449.091797 947.318604 C 4450.378906 945.218384 4463.222168 926.178345 4477.632324 905.007446 C 4495.119629 879.315918 4503.444824 866.267944 4502.666504 865.772705 C 4502.024902 865.364502 4464.149902 865.026001 4418.5 865.020386 L 4335.5 865.01001 Z M 1011 949 C 1011 909.021851 1011.207642 906.134277 1012.581787 905.606934 C 1013.451782 905.273193 1018.159851 905 1023.044189 905 C 1031.924805 905 1031.924805 905 1031.359375 898.25 C 1031.04834 894.537476 1030.170288 884.974976 1029.408203 877 C 1028.645996 869.025024 1027.083496 855.974976 1025.936035 848 C 1024.788574 840.025024 1022.535522 827.004883 1020.929382 819.066528 C 1019.323181 811.128052 1016.375366 798.528076 1014.378601 791.066528 C 1010.748108 777.5 1010.748108 777.5 1010.955383 733.25 L 1011.162659 689 L 989.83136 688.945557 L 968.5 688.891113 L 961 679.37854 C 956.875 674.146606 948.997742 665.508545 943.494995 660.183105 C 937.992249 654.857422 929.516663 647.518311 924.660339 643.873779 C 919.804077 640.229492 911.058472 634.405029 905.225708 630.93042 C 899.392944 627.456055 889.33667 622.251709 882.878418 619.365234 C 876.420166 616.479004 865.525085 612.323486 858.667114 610.131104 C 851.809082 607.938477 841.091003 605.011475 834.848999 603.626221 C 828.607056 602.240967 818.775024 600.407471 813 599.552002 C 807.224976 598.696533 794.962524 597.456787 785.75 596.797119 C 776.537476 596.137451 769 595.278076 769 594.887451 C 769 594.496826 774.962524 591.195801 782.25 587.551758 C 789.537476 583.907715 800.224976 579.337402 806 577.395508 C 811.775024 575.453369 821.900024 572.540527 828.5 570.922119 C 835.099976 569.303955 846.575012 567.10498 854 566.035645 C 861.424988 564.966064 874.398315 563.620605 882.829529 563.045654 C 891.260803 562.470459 923.580261 562 954.650513 562 L 1011.141968 562 L 1010.755554 528.25 C 1010.436768 500.402588 1010.072815 493.450684 1008.674622 488.5 C 1007.742676 485.199951 1005.170776 478.803711 1002.959412 474.285889 C 1000.166748 468.580566 997.018127 464.122559 992.65033 459.689941 C 989.191711 456.179932 983.670593 451.730469 980.381104 449.802734 C 977.091614 447.874756 971.497681 445.149658 967.950134 443.746826 C 964.402527 442.343994 957.900024 440.458984 953.5 439.558105 C 949.099976 438.656982 940.511475 437.648193 934.414368 437.315918 C 927.705139 436.950195 919.417419 437.204102 913.421082 437.95874 C 907.971863 438.644531 899.685425 440.30249 895.006714 441.642578 C 890.328003 442.98291 883.264038 445.601807 879.308899 447.462402 C 875.353821 449.322998 869.46106 452.649658 866.213867 454.854736 C 862.966675 457.059814 857.684692 461.25708 854.476074 464.182129 C 851.267517 467.106934 845.957397 473.100098 842.675903 477.5 C 838.73645 482.782227 836.113403 485.425049 834.954773 485.279541 C 833.989685 485.158203 805.829895 473.785645 772.377563 460.00708 C 738.925171 446.228516 711.113037 434.512939 710.572876 433.9729 C 709.930054 433.330078 710.569397 429.969482 712.423462 424.245361 C 713.981445 419.435303 717.212158 411.038574 719.602783 405.585938 C 721.993408 400.133301 726.404663 391.557373 729.40564 386.528809 C 732.406555 381.5 737.417175 374.036377 740.540405 369.942627 C 743.663574 365.849121 750.107178 358.523682 754.859497 353.664063 C 759.611755 348.804199 766.650024 342.230957 770.5 339.057129 C 774.349976 335.883057 781.775024 330.47583 787 327.040771 C 792.224976 323.605713 801.900024 318.151123 808.5 314.919189 C 815.099976 311.6875 825 307.418457 830.5 305.432861 C 836 303.447266 846.453247 300.316406 853.729431 298.475342 C 861.005615 296.634277 874.28064 294.086914 883.229431 292.813965 C 897.332275 290.80835 903.496887 290.5 929.5 290.5 C 952.177673 290.5 962.917053 290.929932 973.5 292.26123 C 981.200012 293.229736 992.900024 295.137695 999.5 296.500732 C 1006.099976 297.86377 1017.349976 300.829346 1024.5 303.09082 C 1031.650024 305.352295 1042.372437 309.372314 1048.327637 312.024414 C 1054.282715 314.67627 1063.338501 319.342529 1068.451416 322.393799 C 1073.564331 325.444824 1081.463623 330.696533 1086.005493 334.064209 C 1090.547241 337.431641 1098.260864 344.040527 1103.146729 348.750488 C 1108.032593 353.460449 1114.449341 360.281006 1117.406128 363.906982 C 1120.362915 367.533203 1125.241821 374.185303 1128.248291 378.689697 C 1131.254639 383.194092 1135.545532 390.398926 1137.783325 394.700439 C 1140.02124 399.001953 1143.47229 406.539795 1145.452271 411.451172 C 1147.432251 416.362549 1150.364868 424.907715 1151.969238 430.44043 C 1153.573486 435.973145 1155.830566 445.16333 1156.984985 450.862793 C 1158.139404 456.562256 1159.735107 467.362305 1160.53125 474.862793 C 1161.750366 486.349609 1161.980225 524.806396 1161.989258 718.75 L 1162 949 L 1086.5 949 L 1011 949 Z M 2696 949 L 2696 40 L 2777.5 40 L 2859 40 L 2859 416 L 2859 792 L 2996 792 L 3133 792 L 3133 870.5 L 3133 949 L 2914.5 949 L 2696 949 Z M 3296 949 L 3296 605 L 3284.5 605 L 3273 605 L 3273 452.5 L 3273 300 L 3354.5 300 L 3436 300 L 3436 624.5 L 3436 949 L 3366 949 L 3296 949 Z M 3560 949 L 3560 40 L 3641 40 L 3722 40 L 3722.055664 307.75 C 3722.111084 575.5 3722.111084 575.5 3724.305664 572.700684 C 3725.512451 571.161133 3765.22998 509.286133 3812.56665 435.200684 L 3898.633301 300.5 L 3982.925781 300.244385 C 4061.717041 300.005371 4067.176025 300.098877 4066.569824 301.678711 C 4066.213135 302.608154 4050.176025 326.451904 4030.931641 354.664551 C 4011.687256 382.877441 3978.875244 430.958008 3958.015625 461.510742 C 3937.15625 492.063232 3915.555908 523.713379 3910.014648 531.843994 L 3899.940186 546.627197 L 3948.219971 645.063721 L 3996.5 743.5 L 3996.799072 841 C 3996.963623 894.625 3996.818604 940.862549 3996.477051 943.75 C 3995.856201 949 3995.856201 949 3980.044678 949 C 3965.074219 949 3964.205322 948.893677 3963.710205 947 C 3963.4104 945.853149 3962.346191 945 3961.215576 945 C 3960.131104 945 3958.626465 945.914429 3957.87207 947.031982 C 3956.556641 948.980225 3955.654541 949.052368 3936.006104 948.781982 L 3915.511963 948.5 L 3899.740479 912.756836 C 3891.066162 893.098022 3873.220215 852.598022 3860.08252 822.756836 L 3836.196045 768.5 L 3853.987061 768.227905 C 3871.432373 767.96106 3871.790039 767.912476 3872.375488 765.727905 C 3872.703857 764.502563 3872.97876 729.925293 3872.986328 688.889526 C 3872.993896 647.85376 3872.713867 612.191406 3872.364014 609.639648 C 3871.728271 605 3871.728271 605 3791 605 C 3710.271729 605 3710.271729 605 3709.635986 609.639648 C 3709.286133 612.191406 3709.006104 647.85376 3709.013672 688.889526 C 3709.02124 729.925293 3709.298584 764.512451 3709.630371 765.75 C 3710.22876 767.983032 3710.376221 768 3729.199951 768 C 3740.670898 768 3748.034912 768.373291 3747.833252 768.94458 C 3747.649902 769.464111 3741.761719 778.351563 3734.748047 788.69458 L 3721.996094 807.5 L 3721.998047 836.25 C 3722 865 3722 865 3716.135986 865 C 3710.271729 865 3710.271729 865 3709.635986 869.639526 C 3709.286133 872.191284 3709 891.091309 3709 911.639526 L 3709 949 L 3634.5 949 L 3560 949 Z M 1557.717163 923.552368 C 1555.5 929.604736 1555.5 929.604736 1544.5 918.432495 C 1538.449951 912.287842 1530.800049 905.152954 1527.5 902.577148 C 1524.199951 900.001465 1517.900024 895.523926 1513.5 892.627075 C 1509.099976 889.730347 1502.574951 885.749756 1499 883.781372 C 1495.425049 881.81311 1487.702759 878.157837 1481.839478 875.658691 C 1475.976318 873.159424 1466.076294 869.519287 1459.839478 867.569336 C 1453.602783 865.619385 1443.324951 862.932983 1437 861.599487 C 1430.675049 860.265991 1419.875 858.428223 1413 857.515625 C 1406.125 856.603027 1400.182373 855.548462 1399.794067 855.172241 C 1399.405884 854.796021 1359.468384 730.222656 1311.044067 578.342529 C 1262.619873 426.462402 1223 301.702637 1223 301.098389 C 1223 300.30957 1245.542236 300 1302.961426 300 C 1382.922852 300 1382.922852 300 1383.898315 303.75 C 1384.434814 305.8125 1407.419678 395.699951 1434.975586 503.5 C 1462.531616 611.300049 1486.017944 703.019531 1487.16748 707.321289 C 1488.375122 711.840454 1489.630127 714.769897 1490.139893 714.26001 C 1490.625244 713.77478 1497.063477 689.435425 1504.447144 660.172607 C 1511.830811 630.909912 1527.598999 568.505859 1539.487671 521.496826 C 1551.376221 474.488037 1568.759521 405.779541 1578.11731 368.811279 C 1587.474976 331.843262 1595.353271 301.237305 1595.624634 300.79834 C 1595.895996 300.359131 1632.091431 300 1676.05896 300 C 1734.784424 300 1756 300.299561 1756 301.12915 C 1756 301.750244 1711.885254 440.687744 1657.967163 609.87915 C 1604.049072 779.070679 1558.936523 920.223511 1557.717163 923.552368 Z M 2131.161865 572 C 2130.332275 507.224854 2130.118652 503.860596 2128.081787 496.580566 C 2126.863281 492.224854 2124.597656 485.863037 2123.046875 482.443359 C 2121.496338 479.023682 2118.417725 473.587402 2116.205322 470.362793 C 2113.99292 467.138184 2109.779297 462.188965 2106.841553 459.364258 C 2103.903564 456.539551 2099.231689 452.627441 2096.459229 450.670654 C 2093.686768 448.713867 2088.534912 445.749268 2085.010742 444.08252 C 2081.486328 442.415771 2074.320557 440.062744 2069.08667 438.853271 C 2061.913086 437.195557 2056.607666 436.674072 2047.535156 436.734619 C 2039.712402 436.786865 2032.129395 437.510742 2025.869995 438.803223 C 2020.205444 439.972656 2012.793335 442.418945 2007.869995 444.743652 C 2003.266479 446.91748 1996.62561 450.874023 1993.112549 453.536133 C 1989.599487 456.197998 1984.011963 461.779053 1980.695801 465.937988 C 1977.379761 470.097168 1972.693726 477.650146 1970.282593 482.722656 C 1967.87146 487.795166 1964.842041 496.120117 1963.550659 501.222656 C 1962.259277 506.325195 1960.708374 514.550049 1960.104248 519.5 C 1959.5 524.449951 1959.004395 538.287598 1959.002808 550.25 L 1959 572 L 2045.080933 572 L 2131.161865 572 Z M 4453.162109 572 C 4452.33252 507.224854 4452.118652 503.860596 4450.082031 496.580566 C 4448.863281 492.224854 4446.597656 485.863037 4445.046875 482.443359 C 4443.496582 479.023682 4440.41748 473.587402 4438.205566 470.362793 C 4435.993164 467.138184 4431.779297 462.188965 4428.841309 459.364258 C 4425.903809 456.539551 4421.231445 452.627441 4418.458984 450.670654 C 4415.686523 448.713867 4410.534668 445.749268 4407.010742 444.08252 C 4403.486328 442.415771 4396.320801 440.062744 4391.086914 438.853271 C 4383.913086 437.195557 4378.60791 436.674072 4369.535156 436.734619 C 4361.712402 436.786865 4354.129395 437.510742 4347.870117 438.803223 C 4342.205566 439.972656 4334.793457 442.418945 4329.870117 444.743652 C 4325.266602 446.91748 4318.625488 450.874023 4315.112793 453.536133 C 4311.599609 456.197998 4306.012207 461.779053 4302.695801 465.937988 C 4299.379883 470.097168 4294.693848 477.650146 4292.282715 482.722656 C 4289.871582 487.795166 4286.842285 496.120117 4285.550781 501.222656 C 4284.259277 506.325195 4282.708496 514.550049 4282.104004 519.5 C 4281.5 524.449951 4281.004395 538.287598 4281.00293 550.25 L 4281 572 L 4367.081055 572 L 4453.162109 572 Z M 3273 203 L 3273 40 L 3354.5 40 L 3436 40 L 3436 121.5 L 3436 203 L 3354.5 203 L 3273 203 Z"/>
</svg>
